<svg viewBox="0 0 65 65" fill="none" xmlns="http://www.w3.org/2000/svg">
                  <rect width="65" height="65" rx="10" fill="url(#paint0_linear_80_345)"/>
                  <path fill-rule="evenodd" clip-rule="evenodd" d="M35.3318 42.4389C35.8214 42.703 40.0491 46.0961 40.1505 46.2951L43.6075 49.531L49.4559 44.5674L46.8258 40.6319C47.188 40.0977 47.5199 39.5409 47.8143 38.9665C48.1081 38.3926 48.3705 37.8022 48.5949 37.1969L53.3209 37.0426L53.9488 29.3953L49.3104 28.4725C49.188 27.8397 49.0254 27.2134 48.8291 26.5998C48.6312 25.9852 48.3953 25.3832 48.1252 24.7966L50.8088 21.9306L51.3606 21.3418L46.398 15.4929L42.4609 18.1224C41.9256 17.7602 41.3705 17.4311 40.7955 17.1351C40.2222 16.8402 39.6312 16.5789 39.027 16.3539L38.8727 11.6273L31.226 11L30.3021 15.6384C29.6692 15.7619 29.0441 15.9234 28.4299 16.1207C27.8153 16.3187 27.2127 16.5535 26.6267 16.8236L23.1708 13.5882L17.3213 18.5502L19.9514 22.4863C22.5523 26.0122 25.3059 29.854 21.5914 33.7134C21.0214 34.3044 20.8803 34.8507 21.2673 35.5029C22.1736 37.0343 23.1433 38.1506 24.2888 39.5111C25.4261 40.8612 26.2712 41.9152 27.6102 43.0668C28.2535 43.6192 28.7519 43.6909 29.543 43.1556C31.7497 41.6617 33.57 41.4886 35.3318 42.4389ZM33.3892 26.4946C36.1858 26.4946 38.4542 28.7619 38.4542 31.5596C38.4542 34.3568 36.1858 36.6247 33.3892 36.6247C30.5915 36.6247 28.3241 34.3573 28.3241 31.5596C28.3241 28.7619 30.5915 26.4946 33.3892 26.4946Z" fill="white"/>
                  <path d="M26.4992 45.2874C24.1541 43.2708 20.4931 38.9185 18.9369 36.2901C17.9787 34.6715 17.8922 34.2609 19.148 32.8231C19.3514 32.5916 19.5885 32.3358 19.8635 32.0497C20.82 31.0558 21.2395 30.2724 21.1326 29.3909C21.0328 28.5651 19.648 26.2961 18.5515 25.0149C18.1662 24.5657 17.8167 24.2371 17.5708 24.1368C17.2715 24.0144 16.9269 23.9686 16.5151 24.0265C15.7555 24.1671 14.5107 24.9747 13.428 25.9896C11.7709 27.5442 11.2141 28.7823 11.0708 31.0745C10.8696 34.2785 12.256 37.7272 15.6623 42.2642C16.9743 44.0117 18.5284 45.8596 20.0306 47.4616C23.4286 51.0834 26.271 53.0526 29.056 53.7433C31.5609 54.364 34.8189 53.8999 36.5433 51.9054C38.2479 49.9335 39.0902 49.1044 37.3217 47.294C36.8581 46.8193 36.3151 46.4097 35.868 45.9357C34.0075 43.9533 32.9198 43.767 30.8878 45.1429C30.5086 45.4009 30.1767 45.6154 29.8818 45.7901C28.2886 46.7333 27.8707 46.4671 26.4992 45.2874Z" fill="white"/>
                  <defs>
                  <linearGradient id="paint0_linear_80_345" x1="32.5" y1="0" x2="32.5" y2="65" gradientUnits="userSpaceOnUse">
                  <stop stop-color="#6A00FF"/>
                  <stop offset="1" stop-color="#A64AFF"/>
                  </linearGradient>
                  </defs>
                </svg> 