<svg  viewBox="0 0 66 20" fill="none" xmlns="http://www.w3.org/2000/svg">
                          <rect width="66" height="20" rx="10" fill="#FFB1FF"/>
                          <path d="M10.8154 9.14489H9.75288C9.72258 8.97064 9.66671 8.81629 9.58527 8.68182C9.50383 8.54545 9.4025 8.42992 9.28129 8.33523C9.16008 8.24053 9.02182 8.16951 8.86652 8.12216C8.71311 8.07292 8.54739 8.0483 8.36936 8.0483C8.05307 8.0483 7.77277 8.12784 7.52845 8.28693C7.28413 8.44413 7.09285 8.67519 6.95459 8.98011C6.81633 9.28314 6.7472 9.65341 6.7472 10.0909C6.7472 10.536 6.81633 10.911 6.95459 11.2159C7.09474 11.5189 7.28603 11.7481 7.52845 11.9034C7.77277 12.0568 8.05213 12.1335 8.36652 12.1335C8.54076 12.1335 8.70364 12.1108 8.85516 12.0653C9.00857 12.018 9.14588 11.9489 9.26709 11.858C9.39019 11.767 9.49341 11.6553 9.57675 11.5227C9.66197 11.3902 9.72069 11.2386 9.75288 11.0682L10.8154 11.0739C10.7756 11.3504 10.6894 11.6098 10.5569 11.8523C10.4262 12.0947 10.2548 12.3087 10.0427 12.4943C9.83053 12.678 9.58243 12.822 9.29834 12.9261C9.01425 13.0284 8.69891 13.0795 8.35232 13.0795C7.84095 13.0795 7.38451 12.9612 6.983 12.7244C6.58148 12.4877 6.26519 12.1458 6.03413 11.6989C5.80307 11.2519 5.68754 10.7159 5.68754 10.0909C5.68754 9.46402 5.80402 8.92803 6.03697 8.48295C6.26993 8.03598 6.58716 7.69413 6.98868 7.45739C7.39019 7.22064 7.84474 7.10227 8.35232 7.10227C8.67618 7.10227 8.97732 7.14773 9.25572 7.23864C9.53413 7.32955 9.78224 7.46307 10 7.6392C10.2178 7.81345 10.3968 8.02746 10.537 8.28125C10.679 8.53314 10.7718 8.82102 10.8154 9.14489ZM13.3985 13.0852C12.9724 13.0852 12.6031 12.9915 12.2906 12.804C11.9781 12.6165 11.7357 12.3542 11.5633 12.017C11.3929 11.6799 11.3076 11.286 11.3076 10.8352C11.3076 10.3845 11.3929 9.98958 11.5633 9.65057C11.7357 9.31155 11.9781 9.0483 12.2906 8.8608C12.6031 8.6733 12.9724 8.57955 13.3985 8.57955C13.8247 8.57955 14.194 8.6733 14.5065 8.8608C14.819 9.0483 15.0605 9.31155 15.2309 9.65057C15.4033 9.98958 15.4894 10.3845 15.4894 10.8352C15.4894 11.286 15.4033 11.6799 15.2309 12.017C15.0605 12.3542 14.819 12.6165 14.5065 12.804C14.194 12.9915 13.8247 13.0852 13.3985 13.0852ZM13.4042 12.2614C13.6353 12.2614 13.8285 12.1979 13.9838 12.071C14.1391 11.9422 14.2546 11.7699 14.3304 11.554C14.408 11.3381 14.4468 11.0975 14.4468 10.8324C14.4468 10.5653 14.408 10.3239 14.3304 10.108C14.2546 9.89015 14.1391 9.71686 13.9838 9.58807C13.8285 9.45928 13.6353 9.39489 13.4042 9.39489C13.1675 9.39489 12.9705 9.45928 12.8133 9.58807C12.658 9.71686 12.5415 9.89015 12.4639 10.108C12.3881 10.3239 12.3502 10.5653 12.3502 10.8324C12.3502 11.0975 12.3881 11.3381 12.4639 11.554C12.5415 11.7699 12.658 11.9422 12.8133 12.071C12.9705 12.1979 13.1675 12.2614 13.4042 12.2614ZM16.1223 13V8.63636H17.1053V9.37784H17.1564C17.2473 9.12784 17.3979 8.93277 17.6081 8.79261C17.8183 8.65057 18.0693 8.57955 18.361 8.57955C18.6564 8.57955 18.9055 8.65152 19.1081 8.79545C19.3127 8.9375 19.4566 9.13163 19.5399 9.37784H19.5854C19.682 9.13542 19.8449 8.94223 20.074 8.7983C20.3051 8.65246 20.5788 8.57955 20.895 8.57955C21.2966 8.57955 21.6242 8.70644 21.878 8.96023C22.1318 9.21402 22.2587 9.58428 22.2587 10.071V13H21.2274V10.2301C21.2274 9.95928 21.1555 9.76136 21.0115 9.63636C20.8676 9.50947 20.6914 9.44602 20.4831 9.44602C20.235 9.44602 20.0409 9.52367 19.9007 9.67898C19.7625 9.83239 19.6933 10.0322 19.6933 10.2784V13H18.6848V10.1875C18.6848 9.96212 18.6166 9.7822 18.4803 9.64773C18.3458 9.51326 18.1697 9.44602 17.9519 9.44602C17.8041 9.44602 17.6697 9.4839 17.5485 9.55966C17.4272 9.63352 17.3306 9.73864 17.2587 9.875C17.1867 10.0095 17.1507 10.1667 17.1507 10.3466V13H16.1223ZM23.062 13V8.63636H24.045V9.37784H24.0961C24.187 9.12784 24.3376 8.93277 24.5478 8.79261C24.758 8.65057 25.009 8.57955 25.3006 8.57955C25.5961 8.57955 25.8451 8.65152 26.0478 8.79545C26.2523 8.9375 26.3963 9.13163 26.4796 9.37784H26.5251C26.6217 9.13542 26.7845 8.94223 27.0137 8.7983C27.2448 8.65246 27.5184 8.57955 27.8347 8.57955C28.2362 8.57955 28.5639 8.70644 28.8177 8.96023C29.0715 9.21402 29.1984 9.58428 29.1984 10.071V13H28.1671V10.2301C28.1671 9.95928 28.0951 9.76136 27.9512 9.63636C27.8073 9.50947 27.6311 9.44602 27.4228 9.44602C27.1747 9.44602 26.9806 9.52367 26.8404 9.67898C26.7022 9.83239 26.633 10.0322 26.633 10.2784V13H25.6245V10.1875C25.6245 9.96212 25.5563 9.7822 25.42 9.64773C25.2855 9.51326 25.1094 9.44602 24.8915 9.44602C24.7438 9.44602 24.6094 9.4839 24.4881 9.55966C24.3669 9.63352 24.2703 9.73864 24.1984 9.875C24.1264 10.0095 24.0904 10.1667 24.0904 10.3466V13H23.062ZM30.0017 13V8.63636H31.0301V13H30.0017ZM30.5187 8.01705C30.3559 8.01705 30.2157 7.96307 30.0983 7.85511C29.9809 7.74526 29.9221 7.61364 29.9221 7.46023C29.9221 7.30492 29.9809 7.1733 30.0983 7.06534C30.2157 6.95549 30.3559 6.90057 30.5187 6.90057C30.6835 6.90057 30.8237 6.95549 30.9392 7.06534C31.0566 7.1733 31.1153 7.30492 31.1153 7.46023C31.1153 7.61364 31.0566 7.74526 30.9392 7.85511C30.8237 7.96307 30.6835 8.01705 30.5187 8.01705ZM32.876 10.4432V13H31.8476V8.63636H32.8306V9.37784H32.8817C32.9821 9.13352 33.1421 8.93939 33.3618 8.79545C33.5834 8.65152 33.8571 8.57955 34.1829 8.57955C34.484 8.57955 34.7463 8.64394 34.9698 8.77273C35.1952 8.90152 35.3694 9.08807 35.4925 9.33239C35.6175 9.5767 35.6791 9.87311 35.6772 10.2216V13H34.6488V10.3807C34.6488 10.089 34.573 9.8608 34.4215 9.69602C34.2719 9.53125 34.0645 9.44886 33.7993 9.44886C33.6194 9.44886 33.4594 9.48864 33.3192 9.56818C33.181 9.64583 33.0721 9.75852 32.9925 9.90625C32.9149 10.054 32.876 10.233 32.876 10.4432ZM38.3804 14.7273C38.011 14.7273 37.6938 14.6771 37.4286 14.5767C37.1635 14.4782 36.9504 14.3456 36.7894 14.179C36.6285 14.0123 36.5167 13.8277 36.4542 13.625L37.3804 13.4006C37.422 13.4858 37.4826 13.5701 37.5622 13.6534C37.6417 13.7386 37.7487 13.8087 37.8832 13.8636C38.0196 13.9205 38.191 13.9489 38.3974 13.9489C38.6891 13.9489 38.9305 13.8778 39.1218 13.7358C39.3131 13.5956 39.4088 13.3646 39.4088 13.0426V12.2159H39.3576C39.3046 12.322 39.2269 12.4309 39.1247 12.5426C39.0243 12.6544 38.8908 12.7481 38.7241 12.8239C38.5593 12.8996 38.3519 12.9375 38.1019 12.9375C37.7667 12.9375 37.4627 12.8589 37.19 12.7017C36.9192 12.5426 36.7033 12.3059 36.5423 11.9915C36.3832 11.6752 36.3036 11.2794 36.3036 10.804C36.3036 10.3248 36.3832 9.92045 36.5423 9.59091C36.7033 9.25947 36.9201 9.00852 37.1929 8.83807C37.4656 8.66572 37.7696 8.57955 38.1048 8.57955C38.3605 8.57955 38.5707 8.62311 38.7355 8.71023C38.9021 8.79545 39.0347 8.89867 39.1332 9.01989C39.2317 9.1392 39.3065 9.25189 39.3576 9.35795H39.4144V8.63636H40.4286V13.071C40.4286 13.4441 40.3396 13.7528 40.1616 13.9972C39.9836 14.2415 39.7402 14.4242 39.4315 14.5455C39.1228 14.6667 38.7724 14.7273 38.3804 14.7273ZM38.3889 12.1307C38.6067 12.1307 38.7923 12.0777 38.9457 11.9716C39.0991 11.8655 39.2156 11.7131 39.2951 11.5142C39.3747 11.3153 39.4144 11.0767 39.4144 10.7983C39.4144 10.5237 39.3747 10.2831 39.2951 10.0767C39.2175 9.87027 39.1019 9.71023 38.9485 9.59659C38.797 9.48106 38.6105 9.4233 38.3889 9.4233C38.1597 9.4233 37.9684 9.48295 37.815 9.60227C37.6616 9.72159 37.5461 9.88542 37.4684 10.0938C37.3908 10.3002 37.3519 10.535 37.3519 10.7983C37.3519 11.0653 37.3908 11.2992 37.4684 11.5C37.548 11.6989 37.6644 11.8542 37.8179 11.9659C37.9732 12.0758 38.1635 12.1307 38.3889 12.1307ZM46.4359 9.78977L45.4984 9.89205C45.4719 9.79735 45.4255 9.70833 45.3592 9.625C45.2948 9.54167 45.2076 9.47443 45.0978 9.4233C44.988 9.37216 44.8535 9.34659 44.6944 9.34659C44.4804 9.34659 44.3005 9.39299 44.1546 9.4858C44.0107 9.5786 43.9397 9.69886 43.9415 9.84659C43.9397 9.97348 43.9861 10.0767 44.0808 10.1562C44.1773 10.2358 44.3364 10.3011 44.558 10.3523L45.3023 10.5114C45.7152 10.6004 46.022 10.7415 46.2228 10.9347C46.4255 11.1278 46.5277 11.3807 46.5296 11.6932C46.5277 11.9678 46.4472 12.2102 46.2881 12.4205C46.1309 12.6288 45.9122 12.7917 45.6319 12.9091C45.3516 13.0265 45.0296 13.0852 44.666 13.0852C44.1319 13.0852 43.702 12.9735 43.3762 12.75C43.0505 12.5246 42.8563 12.2112 42.7938 11.8097L43.7967 11.7131C43.8421 11.91 43.9387 12.0587 44.0864 12.1591C44.2342 12.2595 44.4264 12.3097 44.6631 12.3097C44.9075 12.3097 45.1035 12.2595 45.2512 12.1591C45.4008 12.0587 45.4756 11.9347 45.4756 11.7869C45.4756 11.6619 45.4273 11.5587 45.3308 11.4773C45.2361 11.3958 45.0883 11.3333 44.8876 11.2898L44.1433 11.1335C43.7247 11.0464 43.415 10.8996 43.2143 10.6932C43.0135 10.4848 42.9141 10.2216 42.916 9.90341C42.9141 9.63447 42.987 9.40152 43.1347 9.20455C43.2844 9.00568 43.4917 8.85227 43.7569 8.74432C44.0239 8.63447 44.3317 8.57955 44.6802 8.57955C45.1915 8.57955 45.594 8.68845 45.8876 8.90625C46.183 9.12405 46.3658 9.41856 46.4359 9.78977ZM49.041 13.0852C48.6149 13.0852 48.2456 12.9915 47.9331 12.804C47.6206 12.6165 47.3782 12.3542 47.2058 12.017C47.0354 11.6799 46.9501 11.286 46.9501 10.8352C46.9501 10.3845 47.0354 9.98958 47.2058 9.65057C47.3782 9.31155 47.6206 9.0483 47.9331 8.8608C48.2456 8.6733 48.6149 8.57955 49.041 8.57955C49.4672 8.57955 49.8365 8.6733 50.149 8.8608C50.4615 9.0483 50.703 9.31155 50.8734 9.65057C51.0458 9.98958 51.1319 10.3845 51.1319 10.8352C51.1319 11.286 51.0458 11.6799 50.8734 12.017C50.703 12.3542 50.4615 12.6165 50.149 12.804C49.8365 12.9915 49.4672 13.0852 49.041 13.0852ZM49.0467 12.2614C49.2778 12.2614 49.471 12.1979 49.6263 12.071C49.7816 11.9422 49.8971 11.7699 49.9729 11.554C50.0505 11.3381 50.0893 11.0975 50.0893 10.8324C50.0893 10.5653 50.0505 10.3239 49.9729 10.108C49.8971 9.89015 49.7816 9.71686 49.6263 9.58807C49.471 9.45928 49.2778 9.39489 49.0467 9.39489C48.81 9.39489 48.613 9.45928 48.4558 9.58807C48.3005 9.71686 48.184 9.89015 48.1064 10.108C48.0306 10.3239 47.9927 10.5653 47.9927 10.8324C47.9927 11.0975 48.0306 11.3381 48.1064 11.554C48.184 11.7699 48.3005 11.9422 48.4558 12.071C48.613 12.1979 48.81 12.2614 49.0467 12.2614ZM53.6682 13.0852C53.2421 13.0852 52.8728 12.9915 52.5603 12.804C52.2478 12.6165 52.0053 12.3542 51.833 12.017C51.6625 11.6799 51.5773 11.286 51.5773 10.8352C51.5773 10.3845 51.6625 9.98958 51.833 9.65057C52.0053 9.31155 52.2478 9.0483 52.5603 8.8608C52.8728 8.6733 53.2421 8.57955 53.6682 8.57955C54.0944 8.57955 54.4637 8.6733 54.7762 8.8608C55.0887 9.0483 55.3302 9.31155 55.5006 9.65057C55.673 9.98958 55.7591 10.3845 55.7591 10.8352C55.7591 11.286 55.673 11.6799 55.5006 12.017C55.3302 12.3542 55.0887 12.6165 54.7762 12.804C54.4637 12.9915 54.0944 13.0852 53.6682 13.0852ZM53.6739 12.2614C53.905 12.2614 54.0981 12.1979 54.2534 12.071C54.4088 11.9422 54.5243 11.7699 54.6 11.554C54.6777 11.3381 54.7165 11.0975 54.7165 10.8324C54.7165 10.5653 54.6777 10.3239 54.6 10.108C54.5243 9.89015 54.4088 9.71686 54.2534 9.58807C54.0981 9.45928 53.905 9.39489 53.6739 9.39489C53.4372 9.39489 53.2402 9.45928 53.083 9.58807C52.9277 9.71686 52.8112 9.89015 52.7336 10.108C52.6578 10.3239 52.6199 10.5653 52.6199 10.8324C52.6199 11.0975 52.6578 11.3381 52.7336 11.554C52.8112 11.7699 52.9277 11.9422 53.083 12.071C53.2402 12.1979 53.4372 12.2614 53.6739 12.2614ZM57.4204 10.4432V13H56.392V8.63636H57.375V9.37784H57.4261C57.5265 9.13352 57.6865 8.93939 57.9062 8.79545C58.1278 8.65152 58.4015 8.57955 58.7272 8.57955C59.0284 8.57955 59.2907 8.64394 59.5142 8.77273C59.7395 8.90152 59.9138 9.08807 60.0369 9.33239C60.1619 9.5767 60.2234 9.87311 60.2215 10.2216V13H59.1931V10.3807C59.1931 10.089 59.1174 9.8608 58.9659 9.69602C58.8162 9.53125 58.6089 9.44886 58.3437 9.44886C58.1638 9.44886 58.0037 9.48864 57.8636 9.56818C57.7253 9.64583 57.6164 9.75852 57.5369 9.90625C57.4592 10.054 57.4204 10.233 57.4204 10.4432Z" fill="#1A1A1A"/>
                        </svg>