<svg viewBox="0 0 65 65" fill="none" xmlns="http://www.w3.org/2000/svg">
                  <rect width="65" height="65" rx="10" fill="url(#paint0_linear_80_338)"/>
                  <path d="M50.1252 11.6714H46.6884C46.6884 11.2224 46.5101 10.7918 46.1926 10.4743C45.8751 10.1568 45.4445 9.97839 44.9955 9.97839C44.5465 9.97839 44.1158 10.1568 43.7983 10.4743C43.4808 10.7918 43.3025 11.2224 43.3025 11.6714H39.07C39.07 11.2224 38.8917 10.7918 38.5742 10.4743C38.2567 10.1568 37.8261 9.97839 37.3771 9.97839C36.9281 9.97839 36.4974 10.1568 36.1799 10.4743C35.8624 10.7918 35.6841 11.2224 35.6841 11.6714H31.4516C31.4516 11.2224 31.2733 10.7918 30.9558 10.4743C30.6383 10.1568 30.2077 9.97839 29.7587 9.97839C29.3096 9.97839 28.879 10.1568 28.5615 10.4743C28.244 10.7918 28.0657 11.2224 28.0657 11.6714H24.6289C23.0709 11.6714 21.5766 12.2903 20.4749 13.392C19.3732 14.4937 18.7543 15.988 18.7543 17.546V28.6604L26.3727 27.196C26.5911 27.1543 26.8156 27.156 27.0334 27.2011C27.2512 27.2462 27.4579 27.3337 27.6418 27.4587C27.8258 27.5837 27.9833 27.7437 28.1054 27.9295C28.2275 28.1154 28.3118 28.3235 28.3535 28.5419C28.3952 28.7603 28.3934 28.9848 28.3483 29.2026C28.3033 29.4204 28.2157 29.6271 28.0908 29.811C27.9658 29.995 27.8058 30.1525 27.6199 30.2746C27.4341 30.3967 27.226 30.481 27.0076 30.5227H27.1261L17.6285 32.3342L11.703 32.9013C11.4064 32.9188 11.1196 33.0141 10.8715 33.1775C10.6233 33.341 10.4226 33.5669 10.2894 33.8325C10.2894 33.8325 10.2894 33.8325 10.2894 33.9002C9.40176 35.8222 8.96183 37.9205 9.00273 40.0372C8.96084 42.1567 9.40079 44.2581 10.2894 46.1827C10.4053 46.4654 10.5956 46.7114 10.84 46.8947C11.0844 47.078 11.3738 47.1918 11.6776 47.2239L16.6381 47.698L19.7785 53.9704C19.8668 54.1859 19.9986 54.3808 20.1656 54.543C20.3326 54.7052 20.5313 54.8313 20.7492 54.9132C20.9671 54.9952 21.1996 55.0313 21.4321 55.0193C21.6646 55.0074 21.8922 54.9476 22.1006 54.8437C22.3089 54.7398 22.4936 54.594 22.6431 54.4155C22.7926 54.237 22.9036 54.0296 22.9693 53.8063C23.035 53.5829 23.0539 53.3484 23.0249 53.1174C22.9958 52.8864 22.9195 52.6638 22.8005 52.4637L20.7605 48.3921L31.8749 50.449C32.2519 50.5739 32.6459 50.6396 33.043 50.6437H33.1869C35.5994 50.5676 37.5717 48.2143 38.4944 44.676H50.1337C50.908 44.6749 51.6745 44.5207 52.389 44.2224C53.1035 43.924 53.752 43.4873 54.2972 42.9374C54.8424 42.3875 55.2734 41.7353 55.5657 41.0182C55.8578 40.3011 56.0054 39.5333 55.9998 38.759V17.5968C55.9999 16.034 55.3826 14.5345 54.2823 13.4247C53.182 12.315 51.6879 11.6848 50.1252 11.6714ZM28.1673 46.2674L19.1098 44.5744C18.6337 43.1126 18.3993 41.583 18.4157 40.0457C18.4037 38.5087 18.6381 36.9798 19.1098 35.517L28.1673 33.824C27.4112 35.8158 27.0378 37.9324 27.0668 40.0626C27.0421 42.1815 27.4154 44.2862 28.1673 46.2674ZM33.1446 47.2239L32.7722 47.1562C32.205 46.8769 31.4855 45.8272 31.003 44.1596C31.9259 43.9365 32.7471 43.4095 33.3343 42.6633C33.9216 41.9172 34.2409 40.9952 34.2409 40.0457C34.2409 39.0961 33.9216 38.1742 33.3343 37.428C32.7471 36.6819 31.9259 36.1549 31.003 35.9318C31.4855 34.2388 32.205 33.2145 32.7722 32.9352L33.1446 32.8336C34.0757 32.986 35.6841 35.6778 35.6841 40.0118C35.6841 44.3459 34.0757 47.0631 33.1446 47.2239ZM49.575 30.6412L44.496 35.7625C44.1788 36.0778 43.7497 36.2548 43.3025 36.2548C42.8552 36.2548 42.4261 36.0778 42.1089 35.7625L39.6118 33.223C39.2941 32.9053 39.1157 32.4745 39.1157 32.0252C39.1157 31.5759 39.2941 31.1451 39.6118 30.8274C39.9295 30.5098 40.3603 30.3313 40.8096 30.3313C41.2588 30.3313 41.6897 30.5098 42.0074 30.8274L43.3025 32.1733L47.2302 28.2456C47.3845 28.076 47.5716 27.9394 47.7803 27.8443C47.989 27.7491 48.2148 27.6973 48.4441 27.6921C48.6733 27.6869 48.9013 27.7283 49.1141 27.8138C49.3269 27.8993 49.5201 28.0272 49.682 28.1896C49.8438 28.3521 49.971 28.5457 50.0558 28.7588C50.1406 28.9719 50.1812 29.2 50.1751 29.4293C50.1691 29.6585 50.1165 29.8842 50.0206 30.0925C49.9247 30.3008 49.7875 30.4875 49.6173 30.6412H49.575ZM52.6139 19.2898H22.1402V17.546C22.1402 17.2192 22.2046 16.8956 22.3297 16.5936C22.4548 16.2917 22.6381 16.0173 22.8692 15.7862C23.1003 15.5552 23.3746 15.3718 23.6766 15.2468C23.9785 15.1217 24.3021 15.0573 24.6289 15.0573H28.0657C28.0657 15.5063 28.244 15.937 28.5615 16.2544C28.879 16.5719 29.3096 16.7503 29.7587 16.7503C30.2077 16.7503 30.6383 16.5719 30.9558 16.2544C31.2733 15.937 31.4516 15.5063 31.4516 15.0573H35.6841C35.6841 15.5063 35.8624 15.937 36.1799 16.2544C36.4974 16.5719 36.9281 16.7503 37.3771 16.7503C37.8261 16.7503 38.2567 16.5719 38.5742 16.2544C38.8917 15.937 39.07 15.5063 39.07 15.0573H43.3025C43.3025 15.5063 43.4808 15.937 43.7983 16.2544C44.1158 16.5719 44.5465 16.7503 44.9955 16.7503C45.4445 16.7503 45.8751 16.5719 46.1926 16.2544C46.5101 15.937 46.6884 15.5063 46.6884 15.0573H50.1252C50.7852 15.0573 51.4182 15.3195 51.8849 15.7862C52.3517 16.253 52.6139 16.886 52.6139 17.546V19.2898Z" fill="white"/>
                  <defs>
                  <linearGradient id="paint0_linear_80_338" x1="32.5" y1="0" x2="32.5" y2="65" gradientUnits="userSpaceOnUse">
                  <stop stop-color="#6A00FF"/>
                  <stop offset="1" stop-color="#A64AFF"/>
                  </linearGradient>
                  </defs>
                </svg>