<svg  viewBox="0 0 21 15" fill="none" xmlns="http://www.w3.org/2000/svg">
                          <path fill-rule="evenodd" clip-rule="evenodd" d="M20.4545 3.40909C20.4545 2.505 20.0952 1.63773 19.4564 0.998182C18.8168 0.359318 17.9495 0 17.0455 0C13.4168 0 7.03773 0 3.40909 0C2.505 0 1.63773 0.359318 0.998182 0.998182C0.359318 1.63773 0 2.505 0 3.40909C0 5.78591 0 9.21409 0 11.5909C0 12.495 0.359318 13.3623 0.998182 14.0018C1.63773 14.6407 2.505 15 3.40909 15C7.03773 15 13.4168 15 17.0455 15C17.9495 15 18.8168 14.6407 19.4564 14.0018C20.0952 13.3623 20.4545 12.495 20.4545 11.5909C20.4545 9.21409 20.4545 5.78591 20.4545 3.40909ZM2.98295 5.30523C2.98295 5.30523 7.12091 8.61545 8.94954 10.078C9.69682 10.6759 10.7577 10.6759 11.505 10.078C13.3336 8.61545 17.4716 5.30523 17.4716 5.30523C17.7655 5.07 17.8132 4.64045 17.578 4.34659C17.3427 4.05273 16.9132 4.005 16.6193 4.24023C16.6193 4.24023 12.482 7.55045 10.6534 9.01364C10.4039 9.21273 10.0507 9.21273 9.80114 9.01364L3.83523 4.24023C3.54136 4.005 3.11182 4.05273 2.87659 4.34659C2.64136 4.64045 2.68909 5.07 2.98295 5.30523Z" fill="#00829B"/>
                      </svg>