<svg  viewBox="0 0 65 65" fill="none" xmlns="http://www.w3.org/2000/svg">
                    <rect width="65" height="65" rx="10" fill="url(#paint0_linear_80_323)"/>
                    <path d="M46.4335 26.519L51.1458 24.5706C51.5536 24.3894 51.8708 24.0722 52.0521 23.6644C52.2333 23.2566 52.2333 22.8035 52.0521 22.3957C51.6896 21.5348 50.738 21.1723 49.8771 21.4895L45.1648 23.4378C44.5305 23.7097 44.168 24.2987 44.168 24.9784C44.168 25.205 44.2133 25.3862 44.3039 25.6128C44.6211 26.4284 45.6179 26.8362 46.4335 26.519Z" fill="white"/>
                    <path d="M51.1453 40.4294L46.4329 38.4811C45.6173 38.1186 44.6205 38.5264 44.258 39.3873C44.1674 39.5685 44.1221 39.7951 44.1221 40.0216C44.1221 40.7013 44.5299 41.2903 45.1189 41.5622L49.8312 43.5106C50.6921 43.8731 51.6437 43.4653 52.0062 42.6044C52.3687 41.7434 52.0062 40.7919 51.1453 40.4294Z" fill="white"/>
                    <path d="M52.4144 30.8688H47.2943C46.3881 30.8688 45.6631 31.5938 45.6631 32.5C45.6631 33.4062 46.3881 34.1312 47.2943 34.1312H52.3691C53.2753 34.1312 54.0003 33.4062 54.0003 32.5C54.0003 31.5938 53.3206 30.8688 52.4144 30.8688Z" fill="white"/>
                    <path d="M19.8806 23.4378L15.1683 21.4895C14.3074 21.127 13.3558 21.5348 12.9934 22.3957C12.8121 22.8035 12.8121 23.2566 12.9934 23.6644C13.1746 24.0722 13.4918 24.3894 13.8996 24.5706L18.6119 26.519C19.4275 26.8815 20.4243 26.4737 20.7868 25.6127C20.8774 25.4315 20.9228 25.2049 20.9228 24.9784C20.8774 24.2987 20.4697 23.7097 19.8806 23.4378Z" fill="white"/>
                    <path d="M18.6119 38.481L13.8995 40.4294C13.0386 40.7919 12.6761 41.7434 12.9933 42.6043C13.3558 43.4652 14.3073 43.8277 15.1682 43.5106L19.8806 41.5622C20.5149 41.2903 20.8774 40.7013 20.8774 40.0216C20.8774 39.7951 20.8321 39.6138 20.7415 39.3873C20.4243 38.5717 19.4275 38.1639 18.6119 38.481Z" fill="white"/>
                    <path d="M19.3825 32.5C19.3825 31.5938 18.6575 30.8688 17.7513 30.8688H12.6312C11.725 30.8688 11 31.5938 11 32.5C11 33.4062 11.725 34.1312 12.6312 34.1312H17.706C18.6575 34.1312 19.3825 33.4062 19.3825 32.5Z" fill="white"/>
                    <path d="M39.8627 28.1955L35.9206 28.422L36.6003 19.7223C36.6909 18.2724 34.7879 17.5927 34.0176 18.8614L23.9133 34.6296C23.2789 35.5811 24.0492 36.8498 25.182 36.8045L29.124 36.578L28.4443 45.2777C28.3084 46.7276 30.2568 47.4073 31.0271 46.1386L41.1314 30.3704C41.7657 29.3736 40.9955 28.1048 39.8627 28.1955Z" fill="white"/>
                    <defs>
                    <linearGradient id="paint0_linear_80_323" x1="32.5" y1="0" x2="32.5" y2="65" gradientUnits="userSpaceOnUse">
                    <stop stop-color="#6A00FF"/>
                    <stop offset="1" stop-color="#A64AFF"/>
                    </linearGradient>
                    </defs>
                </svg>