<svg viewBox="0 0 29 27" fill="none" xmlns="http://www.w3.org/2000/svg">
  <rect x="0.5" y="0.5" width="28" height="26" rx="13" stroke="#E0E0E0"/>
  <path d="M10.7131 19V17.7273L14.6506 13.6477C15.071 13.2045 15.4176 12.8163 15.6903 12.483C15.9669 12.1458 16.1733 11.8258 16.3097 11.5227C16.446 11.2197 16.5142 10.8977 16.5142 10.5568C16.5142 10.1705 16.4233 9.83712 16.2415 9.55682C16.0597 9.27273 15.8116 9.05492 15.4972 8.90341C15.1828 8.74811 14.8286 8.67045 14.4347 8.67045C14.018 8.67045 13.6544 8.75568 13.3438 8.92614C13.0331 9.09659 12.7945 9.33712 12.6278 9.64773C12.4612 9.95833 12.3778 10.322 12.3778 10.7386H10.7017C10.7017 10.0303 10.8646 9.41098 11.1903 8.88068C11.5161 8.35038 11.9631 7.93939 12.5312 7.64773C13.0994 7.35227 13.7453 7.20455 14.4688 7.20455C15.1998 7.20455 15.8438 7.35038 16.4006 7.64205C16.9612 7.92992 17.3987 8.32386 17.7131 8.82386C18.0275 9.32008 18.1847 9.88068 18.1847 10.5057C18.1847 10.9375 18.1032 11.3598 17.9403 11.7727C17.7813 12.1856 17.5028 12.6458 17.1051 13.1534C16.7074 13.6572 16.1544 14.2689 15.446 14.9886L13.1335 17.4091V17.4943H18.3722V19H10.7131Z" 
  />
  
  <style>
        path {
           fill: #404040;
        }
        @media (prefers-color-scheme: dark) {
            path { fill:#E0E0E0; }
        }
    </style>
</svg>