<svg viewBox="0 0 29 27" fill="none" xmlns="http://www.w3.org/2000/svg">
  <rect x="0.5" y="0.5" width="28" height="26" rx="13" stroke="#E0E0E0"/>
  <path d="M14.4993 19.1591C13.7872 19.1591 13.147 19.0227 12.5788 18.75C12.0144 18.4735 11.5637 18.0947 11.2266 17.6136C10.8894 17.1326 10.7095 16.5833 10.6868 15.9659H12.3913C12.433 16.4659 12.6546 16.8769 13.0561 17.1989C13.4576 17.5208 13.9387 17.6818 14.4993 17.6818C14.9463 17.6818 15.3421 17.5795 15.6868 17.375C16.0353 17.1667 16.308 16.8807 16.505 16.517C16.7057 16.1534 16.8061 15.7386 16.8061 15.2727C16.8061 14.7992 16.7038 14.3769 16.4993 14.0057C16.2947 13.6345 16.0125 13.3428 15.6527 13.1307C15.2966 12.9186 14.8875 12.8106 14.4254 12.8068C14.0732 12.8068 13.719 12.8674 13.3629 12.9886C13.0069 13.1098 12.719 13.2689 12.4993 13.4659L10.8913 13.2273L11.5447 7.36364H17.9425V8.86932H13.005L12.6357 12.125H12.7038C12.9311 11.9053 13.2322 11.7216 13.6072 11.5739C13.986 11.4261 14.3913 11.3523 14.8232 11.3523C15.5315 11.3523 16.1622 11.5208 16.7152 11.858C17.272 12.1951 17.7095 12.6553 18.0277 13.2386C18.3497 13.8182 18.5088 14.4848 18.505 15.2386C18.5088 15.9924 18.3383 16.6648 17.9936 17.2557C17.6527 17.8466 17.1792 18.3125 16.5732 18.6534C15.9709 18.9905 15.2796 19.1591 14.4993 19.1591Z"/>
  <style>
        path {
           fill: #404040;
        }
        @media (prefers-color-scheme: dark) {
            path { fill:#E0E0E0; }
        }
    </style>
</svg>