<svg viewBox="0 0 30 27" fill="none" xmlns="http://www.w3.org/2000/svg">
  <rect x="0.5" y="0.5" width="29" height="26" rx="13" stroke="#E0E0E0"/>
  <path d="M15.0142 19.1591C14.2339 19.1591 13.5369 19.0246 12.9233 18.7557C12.3134 18.4867 11.8305 18.1136 11.4744 17.6364C11.1222 17.1553 10.9328 16.5985 10.9062 15.9659H12.6903C12.7131 16.3106 12.8286 16.6098 13.0369 16.8636C13.2491 17.1136 13.5256 17.3068 13.8665 17.4432C14.2074 17.5795 14.5862 17.6477 15.0028 17.6477C15.4612 17.6477 15.8665 17.5682 16.2188 17.4091C16.5748 17.25 16.8532 17.0284 17.054 16.7443C17.2547 16.4564 17.3551 16.125 17.3551 15.75C17.3551 15.3598 17.2547 15.017 17.054 14.7216C16.857 14.4223 16.5672 14.1875 16.1847 14.017C15.8059 13.8466 15.3475 13.7614 14.8097 13.7614H13.8267V12.3295H14.8097C15.2415 12.3295 15.6203 12.2519 15.946 12.0966C16.2756 11.9413 16.5331 11.7254 16.7188 11.4489C16.9044 11.1686 16.9972 10.8409 16.9972 10.4659C16.9972 10.1061 16.9157 9.79356 16.7528 9.52841C16.5938 9.25947 16.3665 9.04924 16.071 8.89773C15.7794 8.74621 15.4347 8.67045 15.0369 8.67045C14.6581 8.67045 14.304 8.74053 13.9744 8.88068C13.6487 9.01705 13.3835 9.21402 13.179 9.47159C12.9744 9.72538 12.8646 10.0303 12.8494 10.3864H11.1506C11.1695 9.75758 11.3551 9.20455 11.7074 8.72727C12.0634 8.25 12.5331 7.87689 13.1165 7.60795C13.6998 7.33901 14.3475 7.20455 15.0597 7.20455C15.8059 7.20455 16.4498 7.35038 16.9915 7.64205C17.5369 7.92992 17.9574 8.31439 18.2528 8.79545C18.5521 9.27651 18.6998 9.80303 18.696 10.375C18.6998 11.0265 18.518 11.5795 18.1506 12.0341C17.7869 12.4886 17.3021 12.7936 16.696 12.9489V13.0398C17.4688 13.1572 18.0672 13.464 18.4915 13.9602C18.9195 14.4564 19.1316 15.072 19.1278 15.8068C19.1316 16.447 18.9536 17.0208 18.5938 17.5284C18.2377 18.036 17.7509 18.4356 17.1335 18.7273C16.5161 19.0152 15.8097 19.1591 15.0142 19.1591Z"/>
  <style>
        path {
           fill: #404040;
        }
        @media (prefers-color-scheme: dark) {
            path { fill:#E0E0E0; }
        }
    </style>
</svg>