<svg viewBox="0 0 30 27" fill="none" xmlns="http://www.w3.org/2000/svg">
  <rect x="0.5" y="0.5" width="29" height="26" rx="13" stroke="#E0E0E0"/>
  <path d="M15.0959 19.1591C14.5769 19.1515 14.0656 19.0568 13.5618 18.875C13.0618 18.6932 12.6072 18.3902 12.1982 17.9659C11.7891 17.5417 11.4614 16.9716 11.2152 16.2557C10.9728 15.5398 10.8516 14.6458 10.8516 13.5739C10.8516 12.5587 10.9519 11.6572 11.1527 10.8693C11.3572 10.0814 11.6508 9.41667 12.0334 8.875C12.416 8.32955 12.8781 7.91477 13.4197 7.63068C13.9614 7.34659 14.5694 7.20455 15.2436 7.20455C15.9368 7.20455 16.5523 7.34091 17.0902 7.61364C17.6281 7.88636 18.0637 8.26326 18.397 8.74432C18.7341 9.22538 18.9482 9.77273 19.0391 10.3864H17.3061C17.1887 9.90152 16.9557 9.50568 16.6072 9.19886C16.2588 8.89205 15.8042 8.73864 15.2436 8.73864C14.3913 8.73864 13.7266 9.10985 13.2493 9.85227C12.7758 10.5947 12.5372 11.6269 12.5334 12.9489H12.6186C12.8194 12.6193 13.0656 12.339 13.3572 12.108C13.6527 11.8731 13.9822 11.6932 14.3459 11.5682C14.7133 11.4394 15.0997 11.375 15.505 11.375C16.1792 11.375 16.7891 11.5398 17.3345 11.8693C17.8838 12.1951 18.3213 12.6458 18.647 13.2216C18.9728 13.7973 19.1357 14.4564 19.1357 15.1989C19.1357 15.9413 18.9671 16.6136 18.63 17.2159C18.2966 17.8182 17.8269 18.2955 17.2209 18.6477C16.6148 18.9962 15.9065 19.1667 15.0959 19.1591ZM15.0902 17.6818C15.5372 17.6818 15.9368 17.572 16.2891 17.3523C16.6413 17.1326 16.9197 16.8371 17.1243 16.4659C17.3288 16.0947 17.4311 15.6799 17.4311 15.2216C17.4311 14.7746 17.3307 14.3674 17.13 14C16.933 13.6326 16.6603 13.3409 16.3118 13.125C15.9671 12.9091 15.5732 12.8011 15.13 12.8011C14.7929 12.8011 14.4804 12.8655 14.1925 12.9943C13.9084 13.1231 13.6584 13.3011 13.4425 13.5284C13.2266 13.7557 13.0561 14.017 12.9311 14.3125C12.8099 14.6042 12.7493 14.9129 12.7493 15.2386C12.7493 15.6742 12.8497 16.0777 13.0504 16.4489C13.255 16.8201 13.5334 17.1193 13.8857 17.3466C14.2417 17.5701 14.6432 17.6818 15.0902 17.6818Z"/>
  <style>
        path {
           fill: #404040;
        }
        @media (prefers-color-scheme: dark) {
            path { fill:#E0E0E0; }
        }
    </style>
</svg>