<svg  viewBox="0 0 22 19" fill="none" xmlns="http://www.w3.org/2000/svg">
                          <path d="M19.5882 0.5H1.58824C0.714706 0.5 0 1.21471 0 2.08824V12.1471C0 13.0206 0.714706 13.7353 1.58824 13.7353H9.79412L16.9412 18.5L15.8824 13.7353H19.5882C20.4618 13.7353 21.1765 13.0206 21.1765 12.1471V2.08824C21.1765 1.21471 20.4618 0.5 19.5882 0.5ZM4.76471 8.70588C3.88853 8.70588 3.17647 7.99382 3.17647 7.11765C3.17647 6.24147 3.88853 5.52941 4.76471 5.52941C5.64088 5.52941 6.35294 6.24147 6.35294 7.11765C6.35294 7.99382 5.64088 8.70588 4.76471 8.70588ZM10.5882 8.70588C9.71206 8.70588 9 7.99382 9 7.11765C9 6.24147 9.71206 5.52941 10.5882 5.52941C11.4644 5.52941 12.1765 6.24147 12.1765 7.11765C12.1765 7.99382 11.4644 8.70588 10.5882 8.70588ZM16.4118 8.70588C15.5356 8.70588 14.8235 7.99382 14.8235 7.11765C14.8235 6.24147 15.5356 5.52941 16.4118 5.52941C17.2879 5.52941 18 6.24147 18 7.11765C18 7.99382 17.2879 8.70588 16.4118 8.70588Z" fill="#00829B"/>
                      </svg>