<svg  viewBox="0 0 50 37" fill="none" xmlns="http://www.w3.org/2000/svg">
              <path fill-rule="evenodd" clip-rule="evenodd" d="M44.9578 11.2818C44.7747 11.4679 44.5264 11.5724 44.2675 11.5724C44.0086 11.5724 43.7603 11.4679 43.5772 11.2818C43.3942 11.0957 43.2913 10.8433 43.2913 10.5801C43.2913 10.3169 43.3942 10.0645 43.5772 9.87841L45.8594 7.55847C45.9493 7.46273 46.0571 7.38623 46.1765 7.33346C46.2959 7.28069 46.4245 7.25272 46.5547 7.25119C46.6849 7.24966 46.814 7.2746 46.9346 7.32455C47.0552 7.3745 47.1647 7.44845 47.2567 7.54205C47.3488 7.63565 47.4215 7.74701 47.4705 7.86958C47.5196 7.99216 47.5441 8.12347 47.5426 8.25581C47.541 8.38814 47.5134 8.51882 47.4615 8.64016C47.4095 8.76151 47.3342 8.87107 47.24 8.96241L44.9578 11.2818ZM50 14.3523C50.0001 14.4827 49.9749 14.6118 49.9258 14.7323C49.8768 14.8528 49.8048 14.9623 49.7141 15.0545C49.6234 15.1467 49.5157 15.2198 49.3972 15.2697C49.2786 15.3195 49.1516 15.3452 49.0233 15.3451H45.7961C45.6659 15.3482 45.5364 15.3249 45.4153 15.2764C45.2941 15.228 45.1837 15.1554 45.0905 15.0629C44.9973 14.9704 44.9233 14.8599 44.8727 14.7379C44.8222 14.616 44.7962 14.4849 44.7962 14.3526C44.7962 14.2202 44.8222 14.0892 44.8727 13.9672C44.9233 13.8452 44.9973 13.7347 45.0905 13.6422C45.1837 13.5497 45.2941 13.4771 45.4153 13.4287C45.5364 13.3802 45.6659 13.3569 45.7961 13.36H49.0233C49.2823 13.36 49.5306 13.4645 49.7137 13.6506C49.8969 13.8367 49.9999 14.0891 50 14.3523ZM43.5622 17.4171C43.7455 17.2311 43.9938 17.1266 44.2528 17.1266C44.5117 17.1266 44.7601 17.2311 44.9433 17.4171L47.2256 19.7371C47.3162 19.8292 47.3881 19.9386 47.4372 20.059C47.4862 20.1794 47.5115 20.3084 47.5115 20.4387C47.5115 20.5691 47.4862 20.6981 47.4372 20.8185C47.3881 20.9389 47.3162 21.0483 47.2256 21.1404C47.1349 21.2326 47.0273 21.3057 46.9089 21.3555C46.7904 21.4054 46.6635 21.4311 46.5353 21.4311C46.4071 21.4311 46.2801 21.4054 46.1617 21.3555C46.0433 21.3057 45.9357 21.2326 45.845 21.1404L43.5622 18.8205C43.4715 18.7284 43.3995 18.619 43.3504 18.4986C43.3013 18.3782 43.276 18.2491 43.276 18.1188C43.276 17.9885 43.3013 17.8594 43.3504 17.739C43.3995 17.6186 43.4715 17.5092 43.5622 17.4171ZM14.0828 16.0149C14.0828 16.2781 13.98 16.5305 13.7969 16.7167C13.6139 16.9029 13.3656 17.0075 13.1067 17.0077H8.18111C7.92208 17.0077 7.67366 16.9031 7.4905 16.7169C7.30734 16.5307 7.20444 16.2782 7.20444 16.0149C7.20444 15.7516 7.30734 15.499 7.4905 15.3128C7.67366 15.1267 7.92208 15.0221 8.18111 15.0221H13.1067C13.3656 15.0222 13.6139 15.1269 13.7969 15.313C13.98 15.4992 14.0828 15.7517 14.0828 16.0149ZM7.20389 12.6699C7.20382 12.5395 7.22905 12.4103 7.27814 12.2898C7.32723 12.1692 7.39922 12.0597 7.48998 11.9675C7.58075 11.8753 7.68851 11.8022 7.8071 11.7524C7.92569 11.7025 8.05279 11.677 8.18111 11.6771H10.3033C10.5624 11.6771 10.8108 11.7817 10.9939 11.9679C11.1771 12.1541 11.28 12.4066 11.28 12.6699C11.28 12.9332 11.1771 13.1858 10.9939 13.3719C10.8108 13.5581 10.5624 13.6627 10.3033 13.6627H8.18111C8.05279 13.6629 7.92569 13.6373 7.8071 13.5875C7.68851 13.5376 7.58075 13.4645 7.48998 13.3723C7.39922 13.2801 7.32723 13.1706 7.27814 13.0501C7.22905 12.9295 7.20382 12.8004 7.20389 12.6699ZM1.95278 12.1746C1.95351 11.9154 2.05531 11.667 2.23588 11.4838C2.41644 11.3007 2.66105 11.1978 2.91611 11.1976H3.84722V17.4877H2.91611C2.66061 17.4874 2.41567 17.3841 2.23506 17.2004C2.05445 17.0167 1.95292 16.7676 1.95278 16.5079V12.1746ZM5.80056 8.73933V19.9432H15.4867V8.74103L5.80056 8.73933ZM17.3244 20.7118C17.9744 20.8349 18.6028 20.961 19.2094 21.0902V24.5029H15.9528L15.3122 21.9294H15.6111C15.9842 21.9288 16.3482 21.812 16.6541 21.5949C16.96 21.3777 17.1932 21.0705 17.3222 20.7146L17.3244 20.7118ZM30.75 5.60277C28.1611 7.34443 23.7756 8.77943 17.4394 9.96708V18.7205C18.4702 18.9129 19.4498 19.1128 20.3783 19.3203L20.3894 19.3231C25.155 20.3848 28.5822 21.6301 30.75 23.0882V5.60277ZM32.7033 3.30824C32.7035 2.95755 32.8405 2.62125 33.0844 2.37317C33.3282 2.12509 33.6589 1.98551 34.0039 1.98506H36.0594C36.2305 1.98491 36.4 2.01902 36.5581 2.08543C36.7162 2.15185 36.8599 2.24927 36.981 2.37214C37.1021 2.49501 37.1981 2.64092 37.2637 2.80153C37.3293 2.96215 37.3632 3.13433 37.3633 3.30824V25.3765C37.363 25.7274 37.2258 26.0638 36.9818 26.3118C36.7377 26.5599 36.4068 26.6994 36.0617 26.6997H34.0061C33.6611 26.6993 33.3304 26.5597 33.0866 26.3116C32.8427 26.0635 32.7057 25.7272 32.7056 25.3765V3.30824H32.7033ZM41.7872 14.3432C41.7861 15.0593 41.5384 15.7524 41.0871 16.3022C40.6359 16.852 40.0095 17.2239 39.3167 17.3533V11.3332C40.0096 11.4622 40.6361 11.8338 41.0875 12.3836C41.5388 12.9334 41.7864 13.6272 41.7872 14.3432ZM11.6894 35.0127H16.5556L13.3 21.9271H8.43333L11.6894 35.0127ZM2.91611 19.4728H3.84722V20.0736C3.8481 20.5658 4.04095 21.0376 4.38348 21.3855C4.72601 21.7333 5.19026 21.9289 5.67444 21.9294H6.41889L9.82 35.5994C9.9195 36 10.1477 36.3553 10.4685 36.6091C10.7892 36.8628 11.1841 37.0004 11.5906 37H16.7178C16.9956 37.0001 17.2699 36.9356 17.5195 36.8116C17.7692 36.6876 17.9876 36.5072 18.1583 36.2843C18.329 36.0614 18.4473 35.8018 18.5043 35.5254C18.5613 35.2489 18.5555 34.9629 18.4872 34.6891L16.4472 26.4885H20.1856C20.4445 26.4884 20.6929 26.3837 20.876 26.1976C21.0591 26.0114 21.1621 25.759 21.1622 25.4957V21.5341C26.0244 22.7059 29.2433 24.0754 30.7583 25.6188C30.8198 26.4516 31.1882 27.2301 31.7899 27.7986C32.3917 28.3672 33.1824 28.6838 34.0039 28.6853H36.0594C36.9224 28.6843 37.7497 28.3354 38.3599 27.7151C38.9701 27.0948 39.3134 26.2538 39.3144 25.3765V19.3576C40.5299 19.2224 41.6535 18.6358 42.4698 17.7103C43.286 16.7848 43.7374 15.5856 43.7374 14.3427C43.7374 13.0997 43.286 11.9005 42.4698 10.975C41.6535 10.0496 40.5299 9.46299 39.3144 9.32779V3.30824C39.3133 2.43111 38.9699 1.59025 38.3597 0.970082C37.7496 0.349909 36.9223 0.00104588 36.0594 0H34.0039C33.1806 0.00116398 32.3883 0.319087 31.7862 0.889857C31.1841 1.46063 30.8169 2.24193 30.7583 3.0767C30.7306 3.09872 30.7028 3.12301 30.6756 3.14729C28.7311 5.03465 24.2394 6.65658 17.3244 7.97073C17.1957 7.61394 16.9624 7.30589 16.6561 7.08816C16.3497 6.87043 15.9849 6.75349 15.6111 6.75315H5.67444C5.19016 6.7536 4.72583 6.94928 4.38328 7.29727C4.04074 7.64527 3.84796 8.11716 3.84722 8.60944V9.21033H2.91611C2.14294 9.21107 1.40164 9.52362 0.854922 10.0794C0.308204 10.6351 0.000735447 11.3887 0 12.1746V16.5062C0.000440793 17.2924 0.307744 18.0464 0.854461 18.6026C1.40118 19.1588 2.14264 19.4717 2.91611 19.4728Z" fill="#00E5FF"/>
            </svg>