<svg  viewBox="0 0 15 19" fill="none" xmlns="http://www.w3.org/2000/svg">
    <path fill-rule="evenodd" clip-rule="evenodd" d="M13.5631 8.6643C13.5631 8.33299 13.8318 8.06435 14.1631 8.06435C14.4944 8.06435 14.763 8.33299 14.763 8.6643C14.763 10.6949 13.9327 12.5405 12.5951 13.878C11.4243 15.0488 9.8642 15.831 8.1315 16.0078V18.5H6.63152V16.0078C4.89882 15.8312 3.3387 15.049 2.16788 13.878C0.830331 12.5403 0 10.6947 0 8.6643C0 8.33299 0.268642 8.06435 0.599954 8.06435C0.931267 8.06435 1.19991 8.33299 1.19991 8.6643C1.19991 10.3636 1.89553 11.9089 3.01617 13.0295C4.13682 14.1502 5.68229 14.8458 7.38161 14.8458C9.08092 14.8458 10.6262 14.1502 11.7468 13.0295C12.8675 11.9089 13.5631 10.3636 13.5631 8.6643ZM7.38161 0.5C5.34063 0.5 3.67079 2.16984 3.67079 4.21081V8.6643C3.67079 10.7053 5.34063 12.3751 7.38161 12.3751C9.42258 12.3751 11.0924 10.7053 11.0924 8.6643V4.21062C11.0924 2.16984 9.42258 0.5 7.38161 0.5Z" fill="#00829B"/>
</svg>