<svg  viewBox="0 0 19 19" fill="none" xmlns="http://www.w3.org/2000/svg">
                          <path d="M6.71924 5.96436L5.57422 6.55513C5.84872 7.35703 6.19487 8.0356 6.53516 8.5848L7.43737 7.33886L6.71924 5.96436Z" fill="#00829B"/>
                          <path d="M10.1133 12.1036C10.6938 12.4729 11.3677 12.8278 12.109 13.0881L12.6994 11.9443L11.3247 11.2262L10.1133 12.1036Z" fill="#00829B"/>
                          <path d="M9.60881 0.5C4.64605 0.5 0.608707 4.53754 0.608707 9.5001C0.608707 11.0185 0.994417 12.5151 1.72567 13.8412L0.0306468 17.9421C-0.0282895 18.0846 -0.00083953 18.2479 0.101088 18.3634C0.178795 18.4516 0.289604 18.5 0.403843 18.5C0.439366 18.5 0.475293 18.4954 0.510413 18.4857L5.03014 17.248C6.41414 18.0677 7.99331 18.5 9.60901 18.5C14.5716 18.5 18.6091 14.4627 18.6091 9.4999C18.6091 4.53714 14.5714 0.5 9.60881 0.5ZM13.6017 11.9579L12.6695 13.7641C12.5986 13.9011 12.4585 13.9827 12.3108 13.9827C12.2716 13.9827 12.2321 13.977 12.1929 13.9651C9.45238 13.1285 7.54321 11.0934 7.33572 10.8655C7.14277 10.694 5.53332 9.2036 4.69933 6.47154C4.64241 6.28504 4.72698 6.08442 4.90036 5.995L6.7068 5.06292C6.90399 4.96099 7.1468 5.03769 7.24954 5.23469L8.26922 7.18645C8.34026 7.32208 8.32815 7.48617 8.23854 7.6101L7.01924 9.29382C7.498 9.93244 7.87644 10.2663 7.88411 10.2731C7.89057 10.2786 7.89521 10.2854 7.90107 10.2911C7.90753 10.2974 7.91499 10.3024 7.92105 10.3093C7.93114 10.3206 8.48518 10.9325 9.40838 11.6178L11.0542 10.4259C11.1781 10.3361 11.3422 10.3244 11.4778 10.395L13.4298 11.4149C13.6268 11.5177 13.7035 11.7605 13.6017 11.9579Z" fill="#00829B"/>
                      </svg>